<svg width="20" height="20" viewBox="0 0 20 20" fill="none" xmlns="http://www.w3.org/2000/svg">
<path fill-rule="evenodd" clip-rule="evenodd" d="M13.6758 2.30726L13.6766 2.93195C15.9721 3.11186 17.4885 4.67608 17.491 7.07487L17.5 14.0964C17.5033 16.7117 15.8602 18.3209 13.2265 18.3251L6.79327 18.3334C4.17603 18.3367 2.51238 16.6892 2.50909 14.0664L2.50004 7.12735C2.49674 4.71272 3.95964 3.15267 6.25517 2.94194L6.25435 2.31726C6.25353 1.95077 6.52504 1.67508 6.88706 1.67508C7.24908 1.67425 7.5206 1.94911 7.52142 2.31559L7.52224 2.89863L12.4095 2.89197L12.4087 2.30893C12.4079 1.94245 12.6794 1.66758 13.0414 1.66675C13.3952 1.66592 13.6749 1.94078 13.6758 2.30726ZM3.76799 7.38472L16.2248 7.36806V7.07654C16.1894 5.28577 15.2909 4.34624 13.6783 4.20631L13.6791 4.84765C13.6791 5.20581 13.4002 5.48983 13.0464 5.48983C12.6844 5.49066 12.412 5.20747 12.412 4.84932L12.4112 4.17466L7.52395 4.18132L7.52477 4.85515C7.52477 5.21414 7.25408 5.49733 6.89206 5.49733C6.53004 5.49816 6.2577 5.2158 6.2577 4.85682L6.25688 4.21547C4.65247 4.37622 3.7647 5.31908 3.76716 7.12568L3.76799 7.38472ZM12.7 11.1703V11.1794C12.7083 11.5626 13.0209 11.8533 13.4002 11.8449C13.7705 11.8358 14.0658 11.5184 14.0576 11.1353C14.0403 10.7688 13.7433 10.4698 13.3739 10.4706C12.9954 10.4789 12.6992 10.7871 12.7 11.1703ZM13.3796 14.9101C13.0012 14.9018 12.6959 14.5861 12.6951 14.2029C12.6869 13.8198 12.9905 13.5025 13.3689 13.4933H13.3772C13.7639 13.4933 14.0774 13.809 14.0774 14.2004C14.0782 14.5919 13.7655 14.9093 13.3796 14.9101ZM9.31016 11.1837C9.32662 11.5668 9.6401 11.8659 10.0186 11.8492C10.3888 11.8317 10.6842 11.5152 10.6677 11.1321C10.6587 10.7573 10.3543 10.4657 9.98401 10.4666C9.60554 10.4832 9.30934 10.8006 9.31016 11.1837ZM10.0219 14.8726C9.6434 14.8893 9.33074 14.5903 9.31347 14.2071C9.31347 13.824 9.60884 13.5075 9.98732 13.49C10.3576 13.4892 10.6628 13.7807 10.671 14.1547C10.6883 14.5386 10.3921 14.8551 10.0219 14.8726ZM5.92044 11.2128C5.93689 11.596 6.25037 11.8958 6.62884 11.8783C6.99909 11.8617 7.29447 11.5443 7.27719 11.1612C7.26896 10.7864 6.96454 10.4949 6.59347 10.4957C6.21499 10.5124 5.91961 10.8297 5.92044 11.2128ZM6.63201 14.8768C6.25354 14.8942 5.94088 14.5944 5.9236 14.2113C5.92278 13.8281 6.21898 13.5108 6.59745 13.4941C6.9677 13.4933 7.27295 13.7848 7.28118 14.1596C7.29846 14.5428 7.00308 14.8601 6.63201 14.8768Z" fill="#FB3F6C"/>
</svg>
