<svg width="20" height="20" viewBox="0 0 20 20" fill="none" xmlns="http://www.w3.org/2000/svg">
<path d="M9.99761 0.400622C6.06403 0.400622 2.3287 0.0507055 0.901945 3.71237C0.312612 5.22471 0.398195 7.18879 0.398195 10.0011C0.398195 12.469 0.319112 14.7884 0.901945 16.2888C2.32545 19.9526 6.09111 19.6016 9.99545 19.6016C13.7622 19.6016 17.6459 19.9938 19.09 16.2888C19.6804 14.7613 19.5938 12.8265 19.5938 10.0011C19.5938 6.25062 19.8007 3.82937 17.9818 2.01154C16.1401 0.169872 13.6495 0.400622 9.99328 0.400622H9.99761ZM9.13745 2.13071C17.3426 2.11771 18.3869 1.20554 17.8106 13.8773C17.6059 18.359 14.1934 17.8672 9.99869 17.8672C2.35036 17.8672 2.13045 17.6484 2.13045 9.99679C2.13045 2.25637 2.73711 2.13504 9.13745 2.12854V2.13071ZM15.1218 3.72429C14.4859 3.72429 13.9702 4.23996 13.9702 4.87587C13.9702 5.51179 14.4859 6.02746 15.1218 6.02746C15.7577 6.02746 16.2734 5.51179 16.2734 4.87587C16.2734 4.23996 15.7577 3.72429 15.1218 3.72429ZM9.99761 5.07087C7.2752 5.07087 5.06845 7.27871 5.06845 10.0011C5.06845 12.7235 7.2752 14.9303 9.99761 14.9303C12.72 14.9303 14.9257 12.7235 14.9257 10.0011C14.9257 7.27871 12.72 5.07087 9.99761 5.07087ZM9.99761 6.80096C14.228 6.80096 14.2334 13.2013 9.99761 13.2013C5.76828 13.2013 5.76178 6.80096 9.99761 6.80096Z" fill="white"/>
</svg>
