<svg width="213" height="20" viewBox="0 0 213 20" fill="none" xmlns="http://www.w3.org/2000/svg">
<path d="M10.232 0.773999C11.324 0.773999 12.3033 0.895332 13.17 1.138C14.054 1.36333 14.7993 1.70133 15.406 2.152C16.0127 2.58533 16.4807 3.12267 16.81 3.764C17.1393 4.40533 17.304 5.12467 17.304 5.922C17.304 7.222 17.0527 8.32267 16.55 9.224C16.0473 10.1253 15.354 10.8533 14.47 11.408C13.586 11.9627 12.546 12.3613 11.35 12.604C10.154 12.8467 8.854 12.968 7.45 12.968H6.436L4.98 19H0.95L5.188 1.242C6.124 1.06867 7.008 0.947333 7.84 0.877999C8.68933 0.808666 9.48667 0.773999 10.232 0.773999ZM9.894 4.18C9.59933 4.18 9.348 4.18867 9.14 4.206C8.932 4.22333 8.724 4.24067 8.516 4.258L7.268 9.562H8.282C9.01 9.562 9.66867 9.51 10.258 9.406C10.8647 9.28467 11.376 9.094 11.792 8.834C12.2253 8.574 12.5547 8.24467 12.78 7.846C13.0227 7.43 13.144 6.92733 13.144 6.338C13.144 5.558 12.858 5.00333 12.286 4.674C11.7313 4.34467 10.934 4.18 9.894 4.18ZM17.5555 19L21.8715 0.982H33.6495L32.8175 4.31H25.0955L24.2635 7.95H31.0755L30.2695 11.226H23.4575L22.4175 15.646H30.7375L29.9055 19H17.5555ZM39.155 19.234C38.115 19.234 37.049 19.1907 35.957 19.104C34.865 19.0173 33.877 18.8787 32.993 18.688L37.153 1.268C38.141 1.07733 39.1723 0.947333 40.247 0.877999C41.339 0.808666 42.3356 0.773999 43.237 0.773999C44.277 0.773999 45.1696 0.886666 45.915 1.112C46.6776 1.32 47.293 1.606 47.761 1.97C48.2463 2.334 48.6016 2.76733 48.827 3.27C49.0696 3.75533 49.191 4.27533 49.191 4.83C49.191 5.21133 49.1476 5.61 49.061 6.026C48.9916 6.442 48.8356 6.858 48.593 7.274C48.3676 7.67267 48.047 8.054 47.631 8.418C47.2323 8.782 46.7036 9.11133 46.045 9.406C46.825 9.75267 47.397 10.2293 47.761 10.836C48.125 11.4253 48.307 12.084 48.307 12.812C48.307 13.644 48.1423 14.45 47.813 15.23C47.4836 15.9927 46.955 16.6773 46.227 17.284C45.499 17.8733 44.5543 18.35 43.393 18.714C42.2316 19.0607 40.819 19.234 39.155 19.234ZM38.791 11.122L37.673 15.802C37.9503 15.854 38.297 15.8973 38.713 15.932C39.1463 15.9493 39.545 15.958 39.909 15.958C40.429 15.958 40.9403 15.9233 41.443 15.854C41.963 15.7673 42.4223 15.62 42.821 15.412C43.237 15.204 43.575 14.918 43.835 14.554C44.095 14.19 44.225 13.722 44.225 13.15C44.225 12.9073 44.173 12.6647 44.069 12.422C43.9823 12.1793 43.835 11.9627 43.627 11.772C43.419 11.5813 43.1416 11.4253 42.795 11.304C42.4656 11.1827 42.067 11.122 41.599 11.122H38.791ZM39.545 8.08H42.093C43.133 8.08 43.9043 7.85467 44.407 7.404C44.927 6.95333 45.187 6.416 45.187 5.792C45.187 5.46267 45.109 5.18533 44.953 4.96C44.8143 4.71733 44.6236 4.52667 44.381 4.388C44.1383 4.24933 43.861 4.154 43.549 4.102C43.237 4.03267 42.9163 3.998 42.587 3.998C42.223 3.998 41.833 4.01533 41.417 4.05C41.001 4.06733 40.689 4.09333 40.481 4.128L39.545 8.08ZM54.4223 0.982H58.4783L54.1363 19H50.1063L54.4223 0.982ZM63.2499 15.984C63.6485 15.984 64.0472 15.958 64.4459 15.906C64.8445 15.8367 65.1999 15.724 65.5119 15.568C65.8239 15.412 66.0752 15.1953 66.2659 14.918C66.4739 14.6233 66.5779 14.2507 66.5779 13.8C66.5779 13.4533 66.4825 13.1587 66.2919 12.916C66.1012 12.656 65.8585 12.422 65.5639 12.214C65.2692 12.006 64.9399 11.8153 64.5759 11.642C64.2119 11.4687 63.8479 11.278 63.4839 11.07C63.0159 10.7927 62.5739 10.498 62.1579 10.186C61.7419 9.874 61.3865 9.52733 61.0919 9.146C60.7972 8.74733 60.5632 8.314 60.3899 7.846C60.2165 7.36067 60.1299 6.806 60.1299 6.182C60.1299 5.38467 60.2772 4.648 60.5719 3.972C60.8839 3.27867 61.3345 2.68067 61.9239 2.178C62.5305 1.67533 63.2845 1.28533 64.1859 1.008C65.0872 0.713332 66.1445 0.565999 67.3579 0.565999C67.9125 0.565999 68.4499 0.617999 68.9699 0.722C69.4899 0.808666 69.9752 0.921333 70.4259 1.06C70.8765 1.19867 71.2839 1.36333 71.6479 1.554C72.0292 1.72733 72.3499 1.90067 72.6099 2.074L70.9199 5.064C70.4865 4.73467 69.9579 4.45733 69.3339 4.232C68.7099 4.00667 68.0339 3.894 67.3059 3.894C66.9072 3.894 66.5259 3.92867 66.1619 3.998C65.7979 4.06733 65.4772 4.18867 65.1999 4.362C64.9225 4.518 64.6972 4.726 64.5239 4.986C64.3679 5.246 64.2899 5.56667 64.2899 5.948C64.2899 6.29467 64.3505 6.58933 64.4719 6.832C64.6105 7.05733 64.7839 7.25667 64.9919 7.43C65.1999 7.60333 65.4425 7.75933 65.7199 7.898C65.9972 8.03667 66.2919 8.184 66.6039 8.34C67.1412 8.61733 67.6612 8.912 68.1639 9.224C68.6665 9.536 69.1085 9.9 69.4899 10.316C69.8712 10.7147 70.1745 11.174 70.3999 11.694C70.6252 12.214 70.7379 12.8293 70.7379 13.54C70.7379 14.528 70.5559 15.386 70.1919 16.114C69.8279 16.842 69.3165 17.4487 68.6579 17.934C67.9992 18.4193 67.2105 18.7747 66.2919 19C65.3905 19.2427 64.3852 19.364 63.2759 19.364C62.5479 19.364 61.8632 19.3033 61.2219 19.182C60.5979 19.0607 60.0259 18.922 59.5059 18.766C59.0032 18.5927 58.5612 18.4107 58.1799 18.22C57.8159 18.0293 57.5212 17.856 57.2959 17.7L59.0119 14.606C59.2199 14.7447 59.4712 14.892 59.7659 15.048C60.0605 15.204 60.3899 15.3513 60.7539 15.49C61.1352 15.6287 61.5339 15.75 61.9499 15.854C62.3659 15.9407 62.7992 15.984 63.2499 15.984ZM84.8973 19C84.1693 16.9547 83.3546 14.9093 82.4533 12.864C81.5693 10.8187 80.6073 8.886 79.5673 7.066L76.7073 19H72.7293L77.0453 0.982H80.1393C80.538 1.58867 80.9626 2.308 81.4133 3.14C81.8813 3.95467 82.358 4.83867 82.8433 5.792C83.3286 6.74533 83.814 7.742 84.2993 8.782C84.7846 9.80467 85.244 10.8187 85.6773 11.824L88.2513 0.982H92.2813L87.9393 19H84.8973ZM96.3422 0.982H100.398L96.0562 19H92.0262L96.3422 0.982ZM105.17 15.984C105.568 15.984 105.967 15.958 106.366 15.906C106.764 15.8367 107.12 15.724 107.432 15.568C107.744 15.412 107.995 15.1953 108.186 14.918C108.394 14.6233 108.498 14.2507 108.498 13.8C108.498 13.4533 108.402 13.1587 108.212 12.916C108.021 12.656 107.778 12.422 107.484 12.214C107.189 12.006 106.86 11.8153 106.496 11.642C106.132 11.4687 105.768 11.278 105.404 11.07C104.936 10.7927 104.494 10.498 104.078 10.186C103.662 9.874 103.306 9.52733 103.012 9.146C102.717 8.74733 102.483 8.314 102.31 7.846C102.136 7.36067 102.05 6.806 102.05 6.182C102.05 5.38467 102.197 4.648 102.492 3.972C102.804 3.27867 103.254 2.68067 103.844 2.178C104.45 1.67533 105.204 1.28533 106.106 1.008C107.007 0.713332 108.064 0.565999 109.278 0.565999C109.832 0.565999 110.37 0.617999 110.89 0.722C111.41 0.808666 111.895 0.921333 112.346 1.06C112.796 1.19867 113.204 1.36333 113.568 1.554C113.949 1.72733 114.27 1.90067 114.53 2.074L112.84 5.064C112.406 4.73467 111.878 4.45733 111.254 4.232C110.63 4.00667 109.954 3.894 109.226 3.894C108.827 3.894 108.446 3.92867 108.082 3.998C107.718 4.06733 107.397 4.18867 107.12 4.362C106.842 4.518 106.617 4.726 106.444 4.986C106.288 5.246 106.21 5.56667 106.21 5.948C106.21 6.29467 106.27 6.58933 106.392 6.832C106.53 7.05733 106.704 7.25667 106.912 7.43C107.12 7.60333 107.362 7.75933 107.64 7.898C107.917 8.03667 108.212 8.184 108.524 8.34C109.061 8.61733 109.581 8.912 110.084 9.224C110.586 9.536 111.028 9.9 111.41 10.316C111.791 10.7147 112.094 11.174 112.32 11.694C112.545 12.214 112.658 12.8293 112.658 13.54C112.658 14.528 112.476 15.386 112.112 16.114C111.748 16.842 111.236 17.4487 110.578 17.934C109.919 18.4193 109.13 18.7747 108.212 19C107.31 19.2427 106.305 19.364 105.196 19.364C104.468 19.364 103.783 19.3033 103.142 19.182C102.518 19.0607 101.946 18.922 101.426 18.766C100.923 18.5927 100.481 18.4107 100.1 18.22C99.7358 18.0293 99.4411 17.856 99.2158 17.7L100.932 14.606C101.14 14.7447 101.391 14.892 101.686 15.048C101.98 15.204 102.31 15.3513 102.674 15.49C103.055 15.6287 103.454 15.75 103.87 15.854C104.286 15.9407 104.719 15.984 105.17 15.984ZM209.967 14.554C210.573 14.554 211.076 14.7273 211.475 15.074C211.891 15.4033 212.099 15.932 212.099 16.66C212.099 17.0587 212.021 17.4227 211.865 17.752C211.726 18.0813 211.535 18.3673 211.293 18.61C211.05 18.8353 210.773 19.0087 210.461 19.13C210.149 19.2687 209.828 19.338 209.499 19.338C208.892 19.338 208.381 19.1733 207.965 18.844C207.566 18.4973 207.367 17.96 207.367 17.232C207.367 16.8333 207.436 16.4693 207.575 16.14C207.731 15.8107 207.93 15.5333 208.173 15.308C208.415 15.0653 208.693 14.8833 209.005 14.762C209.317 14.6233 209.637 14.554 209.967 14.554Z" fill="#FB3F6C"/>
<path d="M136.313 12.448C135.724 14.892 134.762 16.66 133.427 17.752C132.11 18.8267 130.359 19.364 128.175 19.364C127.049 19.364 126.095 19.234 125.315 18.974C124.553 18.6967 123.929 18.324 123.443 17.856C122.958 17.3707 122.603 16.7987 122.377 16.14C122.169 15.464 122.065 14.736 122.065 13.956C122.065 13.0547 122.195 12.0927 122.455 11.07L124.873 0.982H128.929L126.381 11.642C126.208 12.266 126.121 12.8987 126.121 13.54C126.121 13.8867 126.156 14.1987 126.225 14.476C126.312 14.7533 126.451 14.996 126.641 15.204C126.849 15.412 127.118 15.5767 127.447 15.698C127.794 15.802 128.219 15.854 128.721 15.854C129.761 15.854 130.55 15.5333 131.087 14.892C131.625 14.2333 132.041 13.306 132.335 12.11L134.987 0.982H139.043L136.313 12.448ZM151.487 15.568L150.655 19H138.643L142.959 0.982H147.015L143.505 15.568H151.487ZM168.229 12.448C167.64 14.892 166.678 16.66 165.343 17.752C164.026 18.8267 162.275 19.364 160.091 19.364C158.965 19.364 158.011 19.234 157.231 18.974C156.469 18.6967 155.845 18.324 155.359 17.856C154.874 17.3707 154.519 16.7987 154.293 16.14C154.085 15.464 153.981 14.736 153.981 13.956C153.981 13.0547 154.111 12.0927 154.371 11.07L156.789 0.982H160.845L158.297 11.642C158.124 12.266 158.037 12.8987 158.037 13.54C158.037 13.8867 158.072 14.1987 158.141 14.476C158.228 14.7533 158.367 14.996 158.557 15.204C158.765 15.412 159.034 15.5767 159.363 15.698C159.71 15.802 160.135 15.854 160.637 15.854C161.677 15.854 162.466 15.5333 163.003 14.892C163.541 14.2333 163.957 13.306 164.251 12.11L166.903 0.982H170.959L168.229 12.448ZM182.727 19C181.999 16.9547 181.185 14.9093 180.283 12.864C179.399 10.8187 178.437 8.886 177.397 7.066L174.537 19H170.559L174.875 0.982H177.969C178.368 1.58867 178.793 2.308 179.243 3.14C179.711 3.95467 180.188 4.83867 180.673 5.792C181.159 6.74533 181.644 7.742 182.129 8.782C182.615 9.80467 183.074 10.8187 183.507 11.824L186.081 0.982H190.111L185.769 19H182.727ZM199.06 15.88C199.407 15.88 199.719 15.8713 199.996 15.854C200.274 15.8193 200.525 15.7847 200.75 15.75L202.258 9.484H206.314L204.13 18.506C203.645 18.6967 202.943 18.8787 202.024 19.052C201.106 19.2427 199.936 19.338 198.514 19.338C197.301 19.338 196.226 19.1647 195.29 18.818C194.372 18.454 193.6 17.9427 192.976 17.284C192.352 16.6253 191.884 15.828 191.572 14.892C191.26 13.956 191.104 12.8987 191.104 11.72C191.104 10.368 191.338 9.02467 191.806 7.69C192.292 6.35533 193.002 5.168 193.938 4.128C194.874 3.07067 196.036 2.21267 197.422 1.554C198.809 0.895332 200.404 0.565999 202.206 0.565999C203.038 0.565999 203.914 0.687332 204.832 0.929999C205.768 1.17267 206.609 1.53667 207.354 2.022L205.898 5.168C205.292 4.78667 204.642 4.50067 203.948 4.31C203.272 4.11933 202.605 4.024 201.946 4.024C200.889 4.024 199.944 4.22333 199.112 4.622C198.298 5.02067 197.604 5.56667 197.032 6.26C196.46 6.936 196.027 7.72467 195.732 8.626C195.438 9.52733 195.29 10.4807 195.29 11.486C195.29 13.0113 195.602 14.1293 196.226 14.84C196.868 15.5333 197.812 15.88 199.06 15.88Z" fill="black"/>
</svg>
